<?xml version="1.0" encoding="utf-8"?>
<!-- Svg Vector Icons : http://www.onlinewebfonts.com/icon -->
<!DOCTYPE svg PUBLIC "-//W3C//DTD SVG 1.1//EN" "http://www.w3.org/Graphics/SVG/1.1/DTD/svg11.dtd">
<svg version="1.1" xmlns="http://www.w3.org/2000/svg" xmlns:xlink="http://www.w3.org/1999/xlink" x="0px" y="0px" viewBox="0 0 1000 1000" enable-background="new 0 0 1000 1000" xml:space="preserve" >
<metadata> Svg Vector Icons : http://www.onlinewebfonts.com/icon </metadata>
<g><g transform="translate(0.000000,512.000000) scale(0.100000,-0.100000)"><path fill= "white" d="M2586.7,5002.1c-55.5-23-128.3-88.1-158.9-141.7c-17.2-28.7-24.9-1121.9-32.5-4305.7l-9.6-4267.4l-888.3,907.5c-488.2,499.7-913.2,922.8-943.9,943.9c-34.5,21.1-90,34.5-149.3,34.5c-222.1,0-363.8-212.5-279.5-415.5c40.2-93.8,2387.4-2488.9,2465.9-2515.7c74.7-26.8,147.4-26.8,220.2,0c72.7,24.9,2389.3,2379.8,2452.5,2492.7c113,202.9-28.7,438.4-264.2,438.4c-59.4,0-114.9-13.4-149.3-34.5c-30.6-21.1-455.7-444.2-943.9-943.9l-888.3-907.5l-9.6,4271.3l-9.6,4271.3l-40.2,51.7c-21.1,28.7-61.3,70.8-88.1,90C2810.7,5015.5,2657.5,5032.7,2586.7,5002.1z"/><path fill= "white" d="M7880.3,4900.6c-262.3-68.9-507.3-139.8-541.8-157c-74.7-40.2-137.9-151.3-137.9-241.2c0-139.8,141.7-281.4,277.6-283.3c49.8,0,524.6,95.7,627.9,126.4c30.6,9.6,32.5-61.3,32.5-1321V1693.8l-342.7-5.8c-314-5.7-348.4-9.6-398.2-45.9c-187.6-139.8-187.6-373.3,0-513.1c53.6-40.2,74.7-40.2,1062.6-46c953.4-3.8,1012.8-1.9,1076,30.6c199.1,107.2,222.1,381,42.1,516.9c-67,51.7-70.8,51.7-419.3,57.4l-350.4,5.8v1497.1c0,829-9.6,1529.7-19.1,1571.8c-36.4,160.8-141.7,247-312.1,254.6C8381.9,5023.1,8268.9,5000.2,7880.3,4900.6z"/><path fill="white" d="M8167.5-911.8c-731.3-111-1187-649-1152.5-1357.4c15.3-335.1,120.6-574.4,344.6-790.7c122.5-116.8,394.4-254.6,578.2-292.9c478.6-99.6,876.8-17.2,1165.9,241.2l112.9,101.5l-13.4-139.8c-17.2-174.2-91.9-438.4-160.8-564.8c-28.7-53.6-97.6-145.5-153.2-206.8c-291-314-750.5-340.8-1200.4-68.9c-212.5,126.3-365.7,122.5-488.2-15.3c-105.3-120.6-93.8-306.3,28.7-421.2c90-84.2,375.2-225.9,576.3-287.2c149.3-46,204.9-51.7,457.6-53.6c325.5-1.9,459.5,23,693.1,134c490.1,231.7,823.2,767.7,915.1,1476.1c72.7,549.5,3.8,1143-172.3,1504.8c-174.2,356.1-495.9,618.4-873,710.3C8671-904.2,8322.5-888.9,8167.5-911.8z M8642.2-1495.8c363.8-93.8,570.5-365.7,545.6-716c-30.6-417.4-423.1-687.3-896-618.4c-273.8,38.3-472.9,174.2-572.5,386.7c-40.2,88.1-47.9,132.1-47.9,277.6c0,147.4,7.7,189.5,51.7,287.2c57.4,122.5,155.1,235.5,258.5,300.6C8150.2-1474.7,8425.9-1440.2,8642.2-1495.8z"/></g></g>
</svg>