<?xml version="1.0" encoding="utf-8"?>
<!-- Svg Vector Icons : http://www.onlinewebfonts.com/icon -->
<!DOCTYPE svg PUBLIC "-//W3C//DTD SVG 1.1//EN" "http://www.w3.org/Graphics/SVG/1.1/DTD/svg11.dtd">
<svg version="1.1" xmlns="http://www.w3.org/2000/svg" xmlns:xlink="http://www.w3.org/1999/xlink" x="0px" y="0px" viewBox="0 0 1000 1000" enable-background="new 0 0 1000 1000" xml:space="preserve">
<metadata> Svg Vector Icons : http://www.onlinewebfonts.com/icon </metadata>
<g><g transform="translate(0.000000,512.000000) scale(0.100000,-0.100000)"><path fill="white" d="M2588,5001.9c-55.5-23-128.3-88.1-159-141.8c-17.2-28.7-24.9-1122.5-32.6-4308l-9.6-4269.7L1498-2809.6c-488.5,500-913.7,923.3-944.4,944.4c-34.5,21.1-90,34.5-149.4,34.5c-222.2,0-364-212.6-279.7-415.7c40.2-93.8,2388.7-2490.2,2467.2-2517c74.7-26.8,147.5-26.8,220.3,0c72.8,24.9,2390.6,2381,2453.8,2494c113,203.1-28.7,438.7-264.3,438.7c-59.4,0-114.9-13.4-149.4-34.5c-30.6-21.1-455.9-444.4-944.4-944.4L3019-3717.6L3009.4,556l-9.6,4273.6l-40.2,51.7c-21.1,28.7-61.3,70.9-88.1,90C2812.1,5015.3,2658.9,5032.6,2588,5001.9z"/><path fill="white" d="M7857.6,4973.2c-61.3-30.7-118.8-78.6-145.6-120.7c-67-99.6-1486.4-3269.8-1496-3342.6c-11.5-72.8,55.5-212.6,126.4-264.4c59.4-44.1,166.7-63.2,258.6-46c132.2,24.9,180.1,93.8,363.9,517.2c130.3,298.8,180.1,394.6,210.7,402.3c21.1,5.7,432.9,9.6,913.7,9.6l873.5-1.9l159-365.9c88.1-201.1,178.2-390.8,199.2-421.4c65.1-95.8,134.1-134.1,252.9-143.7c91.9-5.7,122.6,0,176.2,38.3c97.7,65.1,139.8,136,149.4,239.4c5.7,86.2-36.4,187.7-720.3,1710.6c-469.3,1044-749,1645.4-789.2,1693.3C8265.6,5026.8,8047.2,5067,7857.6,4973.2z M8397.8,3433.1l312.2-718.3l-319.9-5.7c-176.2-1.9-471.2-1.9-657,0l-335.2,5.7l329.5,754.7c250.9,576.6,331.4,745.1,342.9,718.3C8079.8,4168.7,8227.3,3827.7,8397.8,3433.1z"/><path fill="white" d="M6733.2-1056.9c-116.9-51.7-195.4-214.5-162.8-331.4c28.7-95.8,55.5-134.1,130.3-182l72.8-44.1l971.2-9.6l971.2-9.6L7662.2-2907.3c-578.5-701.1-1076.5-1312.1-1105.3-1360c-42.1-68.9-51.7-109.2-51.7-205c0-128.3,30.6-187.7,132.2-262.4c51.7-40.2,72.8-40.2,1406-46c1291.1-3.8,1358.1-1.9,1421.3,30.6c205,111.1,205,388.8,0,509.5c-65.1,38.3-101.5,40.2-1070.8,49.8l-1001.8,9.6l1059.3,1279.6c584.2,703,1082.3,1319.8,1109.1,1367.7c34.5,65.1,47.9,118.8,47.9,199.2c0,120.7-32.6,180-132.2,254.8c-51.7,40.2-72.8,40.2-1367.7,44.1C7035.8-1032,6781.1-1035.8,6733.2-1056.9z"/></g></g>
</svg>